<svg xmlns="http://www.w3.org/2000/svg" viewBox="0 0 96 96" x="0px" y="0px"><title>Artboard 57</title><g><path fill="#ffffff" d="M16,6A10,10,0,1,0,26,16,10,10,0,0,0,16,6Zm0,16a6,6,0,1,1,6-6A6,6,0,0,1,16,22ZM80,6A10,10,0,1,0,90,16,10,10,0,0,0,80,6Zm0,16a6,6,0,1,1,6-6A6,6,0,0,1,80,22ZM48,6A10,10,0,1,0,58,16,10,10,0,0,0,48,6Zm0,16a6,6,0,1,1,6-6A6,6,0,0,1,48,22ZM16,38A10,10,0,1,0,26,48,10,10,0,0,0,16,38Zm0,16a6,6,0,1,1,6-6A6,6,0,0,1,16,54ZM80,38A10,10,0,1,0,90,48,10,10,0,0,0,80,38Zm0,16a6,6,0,1,1,6-6A6,6,0,0,1,80,54ZM48,38A10,10,0,1,0,58,48,10,10,0,0,0,48,38Zm0,16a6,6,0,1,1,6-6A6,6,0,0,1,48,54ZM16,70A10,10,0,1,0,26,80,10,10,0,0,0,16,70Zm0,16a6,6,0,1,1,6-6A6,6,0,0,1,16,86ZM80,70A10,10,0,1,0,90,80,10,10,0,0,0,80,70Zm0,16a6,6,0,1,1,6-6A6,6,0,0,1,80,86ZM48,70A10,10,0,1,0,58,80,10,10,0,0,0,48,70Zm0,16a6,6,0,1,1,6-6A6,6,0,0,1,48,86Z"/></g></svg>