<svg fill="" xmlns="http://www.w3.org/2000/svg" xmlns:xlink="http://www.w3.org/1999/xlink" version="1.1" x="0px" y="0px" viewBox="0 0 100 125" style="enable-background:new 0 0 100 100;" xml:space="preserve"><g><path fill="#ffffff" d="M11,17.5L11,17.5c-3.3,0-6-2.7-6-6v0c0-3.3,2.7-6,6-6h0c3.3,0,6,2.7,6,6v0C17,14.8,14.3,17.5,11,17.5z"/><path fill="#ffffff" d="M11,56.5L11,56.5c-3.3,0-6-2.7-6-6v0c0-3.3,2.7-6,6-6h0c3.3,0,6,2.7,6,6v0C17,53.8,14.3,56.5,11,56.5z"/><path fill="#ffffff" d="M11,94.5L11,94.5c-3.3,0-6-2.7-6-6v0c0-3.3,2.7-6,6-6h0c3.3,0,6,2.7,6,6v0C17,91.8,14.3,94.5,11,94.5z"/><path fill="#ffffff" d="M50,17.5L50,17.5c-3.3,0-6-2.7-6-6v0c0-3.3,2.7-6,6-6h0c3.3,0,6,2.7,6,6v0C56,14.8,53.3,17.5,50,17.5z"/><path fill="#ffffff" d="M50,56.5L50,56.5c-3.3,0-6-2.7-6-6v0c0-3.3,2.7-6,6-6h0c3.3,0,6,2.7,6,6v0C56,53.8,53.3,56.5,50,56.5z"/><path fill="#ffffff" d="M50,94.5L50,94.5c-3.3,0-6-2.7-6-6v0c0-3.3,2.7-6,6-6h0c3.3,0,6,2.7,6,6v0C56,91.8,53.3,94.5,50,94.5z"/><path fill="#ffffff" d="M89,17.5L89,17.5c-3.3,0-6-2.7-6-6v0c0-3.3,2.7-6,6-6h0c3.3,0,6,2.7,6,6v0C95,14.8,92.3,17.5,89,17.5z"/><path fill="#ffffff" d="M89,56.5L89,56.5c-3.3,0-6-2.7-6-6v0c0-3.3,2.7-6,6-6h0c3.3,0,6,2.7,6,6v0C95,53.8,92.3,56.5,89,56.5z"/><path fill="#ffffff" d="M89,94.5L89,94.5c-3.3,0-6-2.7-6-6v0c0-3.3,2.7-6,6-6h0c3.3,0,6,2.7,6,6v0C95,91.8,92.3,94.5,89,94.5z"/></g></svg>