<?xml version="1.0" encoding="UTF-8"?>
<svg width="256px" height="351px" viewBox="0 0 256 351" version="1.1" xmlns="http://www.w3.org/2000/svg" xmlns:xlink="http://www.w3.org/1999/xlink">
    <!-- Generator: Sketch 52.5 (67469) - http://www.bohemiancoding.com/sketch -->
    <title>firebase</title>
    <desc>Created with Sketch.</desc>
    <g id="Page-1" stroke="none" stroke-width="1" fill="none" fill-rule="evenodd">
        <g id="firebase" fill="#231F20">
            <path d="M0,282.998 L2.123,280.025 L102.527,89.512 L102.739,87.495 L58.479,4.358 C54.771,-2.606 44.331,-0.846 43.114,6.95 L0,282.998 Z" id="Path"></path>
            <path d="M135.005,150.381 L167.96,116.63 L134.996,53.7 C131.866,47.743 123.129,47.726 120.033,53.7 L102.421,87.289 L102.421,90.15 L135.005,150.381 Z" id="Path"></path>
            <path d="M139.121,347.551 L255.396,282.703 L222.191,78.209 C221.152,71.811 213.303,69.281 208.724,73.869 L0,282.998 L115.608,347.545 C122.915,351.625 131.812,351.627 139.121,347.551" id="Path"></path>
        </g>
    </g>
</svg>