<svg xmlns="http://www.w3.org/2000/svg" xmlns:xlink="http://www.w3.org/1999/xlink" version="1.1" x="0px" y="0px" viewBox="0 0 100 125" enable-background="new 0 0 100 100" xml:space="preserve"><rect x="14.832" y="5.754" fill="#ffffff" width="1.509" height="88.492"/><rect x="24.664" y="5.754" fill="#ffffff" width="1.509" height="88.492"/><rect x="34.498" y="5.754" fill="#ffffff" width="1.508" height="88.492"/><rect x="44.33" y="5.754" fill="#ffffff" width="1.508" height="88.492"/><rect x="54.162" y="5.754" fill="#ffffff" width="1.509" height="88.492"/><rect x="63.994" y="5.754" fill="#ffffff" width="1.509" height="88.492"/><rect x="73.827" y="5.754" fill="#ffffff" width="1.509" height="88.492"/><rect x="83.659" y="5.754" fill="#ffffff" width="1.509" height="88.492"/><rect x="5.754" y="14.832" fill="#ffffff" width="88.492" height="1.509"/><rect x="5.754" y="24.664" fill="#ffffff" width="88.492" height="1.509"/><rect x="5.754" y="34.498" fill="#ffffff" width="88.492" height="1.508"/><rect x="5.754" y="44.33" fill="#ffffff" width="88.492" height="1.508"/><rect x="5.754" y="54.162" fill="#ffffff" width="88.492" height="1.509"/><rect x="5.754" y="63.994" fill="#ffffff" width="88.492" height="1.509"/><rect x="5.754" y="73.827" fill="#ffffff" width="88.492" height="1.509"/><rect x="5.754" y="83.659" fill="#ffffff" width="88.492" height="1.509"/><path fill="#ffffff" d="M94.246,95H5.754C5.338,95,5,94.662,5,94.246V5.754C5,5.338,5.338,5,5.754,5h88.492  C94.662,5,95,5.338,95,5.754v88.492C95,94.662,94.662,95,94.246,95z M6.508,93.492h86.984V6.508H6.508V93.492z"/></svg>