<svg xmlns="http://www.w3.org/2000/svg" xmlns:xlink="http://www.w3.org/1999/xlink" version="1.1" x="0px" y="0px" viewBox="0 0 100 125" enable-background="new 0 0 100 100" xml:space="preserve"><g><g><path fill="none" d="M43.87,79.148h12.259c0.186,0,0.338-0.167,0.338-0.373s-0.152-0.374-0.338-0.374H43.87    c-0.186,0-0.338,0.168-0.338,0.374S43.683,79.148,43.87,79.148z"/><path fill="none" d="M13.394,73.14h73.213c1.229,0,2.229-0.916,2.229-2.041V20.066c0-1.125-1-2.041-2.229-2.041H13.394    c-1.229,0-2.23,0.916-2.23,2.041v51.034C11.164,72.224,12.164,73.14,13.394,73.14z M17.755,25.965    c0-1.347,1.208-2.444,2.694-2.444h59.102c1.485,0,2.694,1.096,2.694,2.444v39.234c0,1.348-1.209,2.445-2.694,2.445H20.449    c-1.485,0-2.694-1.096-2.694-2.445V25.965z"/><path fill="none" d="M20.449,66.654h59.102c0.94,0,1.705-0.653,1.705-1.456V25.965c0-0.802-0.765-1.455-1.705-1.455H20.449    c-0.94,0-1.705,0.653-1.705,1.455v39.234C18.744,66.001,19.509,66.654,20.449,66.654z"/><path fill="none" d="M5.989,79.111c0,1.579,1.161,2.865,2.588,2.865h82.845c1.427,0,2.588-1.285,2.588-2.865v-2.893H5.989V79.111z     M43.87,77.413h12.259c0.732,0,1.327,0.611,1.327,1.363c0,0.75-0.595,1.362-1.327,1.362H43.87c-0.732,0-1.327-0.611-1.327-1.362    C42.543,78.024,43.138,77.413,43.87,77.413z"/><path d="M20.449,67.643h59.102c1.485,0,2.694-1.096,2.694-2.445V25.965c0-1.347-1.209-2.444-2.694-2.444H20.449    c-1.485,0-2.694,1.096-2.694,2.444v39.234C17.755,66.547,18.963,67.643,20.449,67.643z M18.744,25.965    c0-0.802,0.765-1.455,1.705-1.455h59.102c0.94,0,1.705,0.653,1.705,1.455v39.234c0,0.803-0.765,1.456-1.705,1.456H20.449    c-0.94,0-1.705-0.653-1.705-1.456V25.965z"/><path d="M13.394,74.129h73.213c1.775,0,3.218-1.359,3.218-3.03V20.066c0-1.671-1.443-3.03-3.218-3.03H13.394    c-1.775,0-3.219,1.359-3.219,3.03v51.034C10.175,72.77,11.619,74.129,13.394,74.129z M11.164,20.066c0-1.125,1-2.041,2.23-2.041    h73.213c1.229,0,2.229,0.916,2.229,2.041v51.034c0,1.125-1,2.041-2.229,2.041H13.394c-1.229,0-2.23-0.916-2.23-2.041V20.066z"/><path d="M94.505,75.229H5.494C5.221,75.229,5,75.45,5,75.723v3.387c0,2.125,1.605,3.854,3.577,3.854h82.845    c1.973,0,3.577-1.729,3.577-3.854v-3.387C95,75.45,94.779,75.229,94.505,75.229z M94.011,79.111c0,1.579-1.161,2.865-2.588,2.865    H8.577c-1.427,0-2.588-1.285-2.588-2.865v-2.893h88.022V79.111z"/><path d="M43.87,80.137h12.259c0.732,0,1.327-0.611,1.327-1.362c0-0.751-0.595-1.363-1.327-1.363H43.87    c-0.732,0-1.327,0.611-1.327,1.363C42.543,79.526,43.138,80.137,43.87,80.137z M43.87,78.402h12.259    c0.186,0,0.338,0.168,0.338,0.374s-0.152,0.373-0.338,0.373H43.87c-0.186,0-0.338-0.167-0.338-0.373S43.683,78.402,43.87,78.402z"/></g></g></svg>