<svg xmlns="http://www.w3.org/2000/svg" xmlns:xlink="http://www.w3.org/1999/xlink" version="1.1" x="0px" y="0px" viewBox="0 0 100 125" style="enable-background:new 0 0 100 100;" xml:space="preserve"><path d="M42.9,80c0,3.8,3.2,7.1,7,7.1c3.8,0,7-3.2,7-7.1c0-3.8-3.2-7.1-7-7.1C46.1,73,42.9,76.2,42.9,80z"/><path d="M42.9,50c0,3.8,3.2,7.1,7,7.1c3.8,0,7-3.2,7-7.1c0-3.8-3.2-7.1-7-7.1C46.1,43,42.9,46.2,42.9,50z"/><path d="M42.9,20c0,3.8,3.2,7.1,7,7.1c3.8,0,7-3.2,7-7.1c0-3.8-3.2-7.1-7-7.1C46.1,13,42.9,16.2,42.9,20z"/></svg>