<svg xmlns="http://www.w3.org/2000/svg" xmlns:xlink="http://www.w3.org/1999/xlink" version="1.1" x="0px" y="0px" viewBox="0 0 100 125" enable-background="new 0 0 100 100" xml:space="preserve"><g><g><path fill="none" d="M52.788,83.962h-5.576c-0.457,0-0.83,0.372-0.83,0.829v3.074c0,0.457,0.372,0.829,0.83,0.829h5.576    c0.456,0,0.827-0.372,0.827-0.829v-3.074C53.616,84.335,53.245,83.962,52.788,83.962z"/><rect x="31.818" y="13.688" fill="none" width="36.363" height="64.885"/><path fill="none" d="M67.611,6.93H32.39c-3.532,0-6.406,2.945-6.406,6.565v73.009c0,3.62,2.873,6.565,6.406,6.565h35.221    c3.532,0,6.405-2.945,6.405-6.565V13.496C74.016,9.875,71.142,6.93,67.611,6.93z M55.546,87.866c0,1.521-1.237,2.76-2.758,2.76    h-5.576c-1.522,0-2.76-1.239-2.76-2.76v-3.074c0-1.522,1.238-2.76,2.76-2.76h5.576c1.52,0,2.758,1.238,2.758,2.76V87.866z     M70.111,79.538c0,0.534-0.432,0.965-0.965,0.965H30.853c-0.533,0-0.965-0.432-0.965-0.965V12.723    c0-0.534,0.432-0.965,0.965-0.965h38.293c0.533,0,0.965,0.432,0.965,0.965V79.538z"/><path d="M67.611,5H32.39c-4.596,0-8.336,3.811-8.336,8.496v73.009c0,4.685,3.74,8.495,8.336,8.495h35.221    c4.596,0,8.336-3.811,8.336-8.495V13.496C75.946,8.811,72.207,5,67.611,5z M74.016,86.504c0,3.62-2.873,6.565-6.405,6.565H32.39    c-3.532,0-6.406-2.945-6.406-6.565V13.496c0-3.62,2.873-6.565,6.406-6.565h35.221c3.532,0,6.405,2.945,6.405,6.565V86.504z"/><path d="M52.788,82.032h-5.576c-1.522,0-2.76,1.238-2.76,2.76v3.074c0,1.521,1.238,2.76,2.76,2.76h5.576    c1.52,0,2.758-1.239,2.758-2.76v-3.074C55.546,83.269,54.309,82.032,52.788,82.032z M53.616,87.866    c0,0.457-0.371,0.829-0.827,0.829h-5.576c-0.457,0-0.83-0.372-0.83-0.829v-3.074c0-0.457,0.372-0.829,0.83-0.829h5.576    c0.456,0,0.827,0.372,0.827,0.829V87.866z"/><path d="M69.146,11.757H30.853c-0.533,0-0.965,0.432-0.965,0.965v66.815c0,0.534,0.432,0.965,0.965,0.965h38.293    c0.533,0,0.965-0.432,0.965-0.965V12.723C70.111,12.189,69.679,11.757,69.146,11.757z M68.181,78.573H31.818V13.688h36.363V78.573    z"/></g></g></svg>