<?xml version="1.0" standalone="no"?>
<!DOCTYPE svg PUBLIC "-//W3C//DTD SVG 20010904//EN"
 "http://www.w3.org/TR/2001/REC-SVG-20010904/DTD/svg10.dtd">
<svg version="1.0" xmlns="http://www.w3.org/2000/svg"
 width="1080.000000pt" height="1080.000000pt" viewBox="0 0 1080.000000 1080.000000"
 preserveAspectRatio="xMidYMid meet">
<metadata>
Created by potrace 1.11, written by Peter Selinger 2001-2013
</metadata>
<g transform="translate(0.000000,1080.000000) scale(0.100000,-0.100000)"
fill="#000000" stroke="none">
<path d="M0 5400 l0 -5400 5400 0 5400 0 0 5400 0 5400 -5400 0 -5400 0 0
-5400z m3379 4464 c594 -78 1044 -342 1331 -780 175 -267 282 -630 297 -1011
l6 -143 -635 0 -635 0 -7 86 c-9 121 -31 204 -83 314 -103 216 -299 335 -584
355 -247 18 -470 -63 -623 -225 -89 -95 -138 -191 -173 -338 -17 -71 -18 -136
-18 -802 0 -719 0 -726 23 -805 76 -275 267 -462 542 -531 109 -27 343 -25
455 5 224 59 370 191 440 396 22 66 45 205 45 278 l0 57 636 0 637 0 -7 -137
c-13 -252 -45 -431 -112 -633 -93 -275 -223 -482 -425 -675 -192 -184 -386
-300 -651 -390 -257 -87 -477 -119 -813 -120 -242 0 -362 14 -560 65 -574 147
-1047 529 -1290 1043 -92 195 -140 354 -177 582 -19 120 -21 182 -25 775 -5
716 0 848 47 1080 61 301 157 527 330 772 75 106 233 274 335 358 285 233 661
389 1035 430 52 5 111 12 130 14 68 8 416 -5 529 -20z m5699 -6596 c-571
-1239 -1098 -2382 -1171 -2540 -72 -159 -134 -288 -137 -288 -3 0 -524 1126
-1159 2503 -635 1376 -1163 2519 -1173 2540 l-18 37 2349 0 2349 0 -1040
-2252z"/>
<path d="M5859 5208 c10 -24 290 -630 621 -1348 330 -718 755 -1639 943 -2047
188 -409 344 -743 347 -743 6 0 1930 4161 1930 4173 0 4 -868 7 -1930 7
l-1929 0 18 -42z"/>
</g>
</svg>
