<svg xmlns="http://www.w3.org/2000/svg" xmlns:xlink="http://www.w3.org/1999/xlink" version="1.1" x="0px" y="0px" viewBox="0 0 100 100" style="enable-background:new 0 0 100 100;" xml:space="preserve"><g><path fill="#FF4242" d="M91.2,44.8c-3.2,0-4.7,2.5-6.1,4.6c-1.2,2-2.3,3.7-4.4,3.7s-3.1-1.7-4.4-3.7c-1.4-2.2-2.9-4.6-6.1-4.6   c-3.2,0-4.7,2.5-6.1,4.6c-1.2,2-2.3,3.7-4.4,3.7c-2.1,0-3.1-1.7-4.4-3.7c-1.4-2.2-2.9-4.6-6.1-4.6c-3.2,0-4.7,2.5-6.1,4.6   c-1.2,2-2.3,3.7-4.4,3.7c-2,0-3.1-1.7-4.4-3.7c-1.4-2.2-2.9-4.6-6.1-4.6c-3.2,0-4.7,2.5-6.1,4.6c-1.2,2-2.3,3.7-4.4,3.7   c-2,0-3.1-1.7-4.4-3.7c-1.4-2.2-2.9-4.6-6.1-4.6c-0.6,0-1,0.4-1,1s0.4,1,1,1c2,0,3.1,1.7,4.4,3.7c1.4,2.2,2.9,4.6,6.1,4.6   c3.2,0,4.7-2.5,6.1-4.6c1.2-2,2.3-3.7,4.4-3.7s3.1,1.7,4.4,3.7c1.4,2.2,2.9,4.6,6.1,4.6c3.2,0,4.7-2.5,6.1-4.6   c1.2-2,2.3-3.7,4.4-3.7c2.1,0,3.1,1.7,4.4,3.7c1.4,2.2,2.9,4.6,6.1,4.6c3.2,0,4.7-2.5,6.1-4.6c1.2-2,2.3-3.7,4.4-3.7   c2.1,0,3.1,1.7,4.4,3.7c1.4,2.2,2.9,4.6,6.1,4.6s4.7-2.5,6.1-4.6c1.2-2,2.3-3.7,4.4-3.7c0.6,0,1-0.4,1-1S91.8,44.8,91.2,44.8z"/></g></svg>